<svg width="40" height="40" viewBox="0 0 40 40" fill="none" xmlns="http://www.w3.org/2000/svg">
<rect width="40" height="40" rx="20" fill="#1DA1F2"/>
<path d="M23.0466 15.0024V15H23.6815L23.9134 15.0464C24.0681 15.0765 24.2085 15.116 24.3346 15.1648C24.4608 15.2137 24.5829 15.2706 24.7009 15.3357C24.8189 15.4008 24.9259 15.4672 25.022 15.5347C25.1172 15.6015 25.2027 15.6723 25.2784 15.7472C25.3532 15.8229 25.47 15.8424 25.6287 15.8058C25.7875 15.7691 25.9584 15.7183 26.1415 15.6532C26.3246 15.5881 26.5057 15.5148 26.6848 15.4334C26.8639 15.352 26.9729 15.3003 27.012 15.2784C27.0502 15.2556 27.0706 15.2434 27.073 15.2417L27.0755 15.2381L27.0877 15.232L27.0999 15.2259L27.1121 15.2198L27.1243 15.2137L27.1267 15.21L27.1304 15.2075L27.1341 15.2051L27.1365 15.2014L27.1487 15.1978L27.1609 15.1953L27.1585 15.2137L27.1548 15.232L27.1487 15.2503L27.1426 15.2686L27.1365 15.2808L27.1304 15.293L27.1243 15.3113C27.1202 15.3235 27.1162 15.3398 27.1121 15.3602C27.108 15.3805 27.0694 15.4619 26.9961 15.6043C26.9229 15.7468 26.8313 15.8912 26.7214 16.0377C26.6115 16.1842 26.5131 16.2949 26.426 16.3698C26.3381 16.4455 26.2799 16.4984 26.2514 16.5285C26.2229 16.5594 26.1883 16.5879 26.1476 16.614L26.0866 16.6543L26.0744 16.6604L26.0622 16.6665L26.0597 16.6701L26.056 16.6726L26.0524 16.675L26.0499 16.6787L26.0377 16.6848L26.0255 16.6909L26.0231 16.6946L26.0194 16.697L26.0158 16.6994L26.0133 16.7031L26.0109 16.7068L26.0072 16.7092L26.0036 16.7117L26.0011 16.7153H26.0622L26.404 16.6421C26.6319 16.5932 26.8496 16.5342 27.0572 16.465L27.3868 16.3552L27.4234 16.343L27.4417 16.3368L27.4539 16.3307L27.4661 16.3246L27.4784 16.3185L27.4906 16.3124L27.515 16.3088L27.5394 16.3063V16.3307L27.5333 16.3332L27.5272 16.3368L27.5248 16.3405L27.5211 16.343L27.5174 16.3454L27.515 16.3491L27.5126 16.3527L27.5089 16.3552L27.5052 16.3576L27.5028 16.3613L27.5003 16.3649L27.4967 16.3674L27.4906 16.3796L27.4845 16.3918L27.4808 16.3942C27.4792 16.3967 27.4275 16.4658 27.3257 16.6018C27.224 16.7385 27.1691 16.8077 27.1609 16.8093C27.1528 16.8118 27.1414 16.824 27.1267 16.8459C27.1129 16.8687 27.0266 16.9595 26.8679 17.1182C26.7092 17.2769 26.5538 17.4181 26.4016 17.5418C26.2486 17.6664 26.1712 17.8194 26.1696 18.0009C26.1672 18.1816 26.1578 18.3859 26.1415 18.6138C26.1252 18.8417 26.0947 19.0879 26.0499 19.3524C26.0052 19.6169 25.936 19.916 25.8424 20.2497C25.7488 20.5834 25.6348 20.909 25.5006 21.2264C25.3663 21.5438 25.2259 21.8287 25.0794 22.081C24.9329 22.3333 24.7986 22.547 24.6765 22.722C24.5544 22.897 24.4303 23.0618 24.3041 23.2164C24.178 23.3711 24.0184 23.5453 23.8255 23.739C23.6318 23.9319 23.526 24.0377 23.5081 24.0564C23.4894 24.0743 23.4096 24.141 23.2688 24.2566C23.1288 24.373 22.9782 24.4894 22.8171 24.6058C22.6568 24.7214 22.5094 24.8178 22.3751 24.8951C22.2408 24.9724 22.0789 25.0607 21.8892 25.16C21.7004 25.2602 21.4961 25.3529 21.2764 25.4384C21.0566 25.5239 20.8246 25.6032 20.5805 25.6765C20.3363 25.7497 20.1003 25.8067 19.8724 25.8474C19.6445 25.8881 19.3861 25.9227 19.0971 25.9512L18.6637 25.9939V26H17.8701V25.9939L17.7664 25.9878C17.6972 25.9837 17.6402 25.9796 17.5954 25.9756C17.5507 25.9715 17.3818 25.9491 17.0888 25.9084C16.7958 25.8677 16.5659 25.827 16.399 25.7863C16.2322 25.7457 15.9839 25.6683 15.6543 25.5544C15.3246 25.4404 15.0426 25.3253 14.8082 25.2089C14.5746 25.0933 14.4281 25.02 14.3687 24.9891C14.3101 24.959 14.2442 24.9216 14.1709 24.8768L14.061 24.8097L14.0586 24.806L14.0549 24.8036L14.0513 24.8011L14.0488 24.7974L14.0366 24.7913L14.0244 24.7852L14.022 24.7816L14.0183 24.7791L14.0147 24.7767L14.0122 24.773L14.0098 24.7694L14.0061 24.7669H14V24.7425L14.0122 24.745L14.0244 24.7486L14.0794 24.7547C14.116 24.7588 14.2157 24.7649 14.3785 24.773C14.5413 24.7812 14.7142 24.7812 14.8973 24.773C15.0805 24.7649 15.2677 24.7466 15.4589 24.7181C15.6502 24.6896 15.8761 24.6408 16.1365 24.5716C16.397 24.5024 16.6363 24.4202 16.8544 24.325C17.0717 24.2289 17.2263 24.1573 17.3183 24.1101C17.4095 24.0637 17.5487 23.9774 17.7358 23.8513L18.0166 23.662L18.0191 23.6584L18.0228 23.6559L18.0264 23.6535L18.0289 23.6498L18.0313 23.6462L18.035 23.6437L18.0386 23.6413L18.0411 23.6376L18.0533 23.634L18.0655 23.6315L18.0679 23.6193L18.0716 23.6071L18.0753 23.6047L18.0777 23.601L17.98 23.5949C17.9149 23.5908 17.8518 23.5868 17.7908 23.5827C17.7297 23.5786 17.6341 23.5603 17.5039 23.5277C17.3737 23.4952 17.2333 23.4464 17.0827 23.3812C16.9321 23.3161 16.7856 23.2388 16.6432 23.1493C16.5007 23.0598 16.3978 22.9853 16.3343 22.9259C16.2716 22.8672 16.1902 22.7842 16.0901 22.6768C15.9908 22.5686 15.9046 22.4575 15.8313 22.3435C15.758 22.2296 15.6881 22.0981 15.6213 21.9492L15.52 21.727L15.5139 21.7087L15.5078 21.6903L15.5041 21.6781L15.5017 21.6659L15.52 21.6684L15.5383 21.672L15.6726 21.6903C15.7621 21.7026 15.9025 21.7066 16.0938 21.7026C16.2851 21.6985 16.4173 21.6903 16.4906 21.6781C16.5638 21.6659 16.6086 21.6578 16.6249 21.6537L16.6493 21.6476L16.6798 21.6415L16.7103 21.6354L16.7128 21.6317L16.7164 21.6293L16.7201 21.6269L16.7225 21.6232L16.6981 21.6171L16.6737 21.611L16.6493 21.6049L16.6249 21.5988L16.6004 21.5927C16.5842 21.5886 16.5557 21.5805 16.515 21.5683C16.4743 21.556 16.3644 21.5113 16.1853 21.434C16.0063 21.3566 15.8639 21.2814 15.758 21.2081C15.652 21.1346 15.5508 21.0543 15.4553 20.9676C15.36 20.8797 15.2555 20.7666 15.1415 20.6282C15.0276 20.4898 14.9258 20.3291 14.8363 20.1459C14.7468 19.9628 14.6796 19.7878 14.6349 19.621C14.5903 19.4551 14.5608 19.2855 14.547 19.1143L14.525 18.8579L14.5372 18.8604L14.5494 18.864L14.5616 18.8701L14.5738 18.8762L14.586 18.8824L14.5982 18.8885L14.7875 18.9739C14.9136 19.0309 15.0703 19.0797 15.2575 19.1204C15.4447 19.1611 15.5566 19.1835 15.5932 19.1876L15.6482 19.1937H15.758L15.7556 19.19L15.7519 19.1876L15.7483 19.1851L15.7458 19.1815L15.7434 19.1778L15.7397 19.1754L15.7361 19.1729L15.7336 19.1693L15.7214 19.1632L15.7092 19.157L15.7068 19.1534L15.7031 19.1509L15.6994 19.1485L15.697 19.1448L15.6848 19.1387L15.6726 19.1326L15.6702 19.129C15.6677 19.1273 15.6327 19.1013 15.5651 19.0508C15.4984 18.9996 15.4284 18.9332 15.3552 18.8518C15.2819 18.7704 15.2087 18.685 15.1354 18.5954C15.062 18.5057 14.9967 18.4097 14.9401 18.3085C14.8831 18.2068 14.8229 18.0774 14.7594 17.9203C14.6967 17.764 14.6491 17.6065 14.6165 17.4478C14.584 17.2891 14.5657 17.1324 14.5616 16.9778C14.5575 16.8232 14.5616 16.6909 14.5738 16.581C14.586 16.4711 14.6104 16.347 14.6471 16.2087C14.6837 16.0703 14.7366 15.9238 14.8058 15.7691L14.9095 15.5372L14.9156 15.5189L14.9218 15.5006L14.9254 15.4981L14.9279 15.4945L14.9303 15.4908L14.934 15.4883L14.9376 15.4908L14.9401 15.4945L14.9425 15.4981L14.9462 15.5006L14.9498 15.503L14.9523 15.5067L14.9547 15.5103L14.9584 15.5128L14.9645 15.525L14.9706 15.5372L14.9743 15.5396L14.9767 15.5433L15.1415 15.7264C15.2514 15.8485 15.3816 15.9848 15.5322 16.1354C15.6828 16.286 15.7662 16.3641 15.7825 16.3698C15.7988 16.3763 15.8191 16.395 15.8435 16.426C15.8679 16.4561 15.9493 16.5281 16.0877 16.6421C16.2261 16.756 16.4071 16.8883 16.631 17.0388C16.8548 17.1894 17.103 17.338 17.3757 17.4845C17.6484 17.631 17.9414 17.7632 18.2547 17.8812C18.5681 17.9993 18.7878 18.0766 18.914 18.1132C19.0401 18.1498 19.2558 18.1966 19.561 18.2536C19.8663 18.3106 20.0962 18.3472 20.2508 18.3635C20.4055 18.3798 20.5113 18.3891 20.5683 18.3916L20.6537 18.394L20.6513 18.3757L20.6476 18.3574L20.6232 18.2048C20.6069 18.103 20.5988 17.9606 20.5988 17.7775C20.5988 17.5943 20.613 17.4255 20.6415 17.2708C20.67 17.1162 20.7127 16.9595 20.7697 16.8008C20.8267 16.6421 20.8824 16.5147 20.937 16.4186C20.9923 16.3234 21.0647 16.2148 21.1543 16.0927C21.2438 15.9706 21.3598 15.8444 21.5022 15.7142C21.6447 15.584 21.8074 15.468 21.9906 15.3663C22.1737 15.2645 22.3426 15.1872 22.4972 15.1343C22.6519 15.0814 22.7821 15.0468 22.8879 15.0305C22.9937 15.0142 23.0466 15.0049 23.0466 15.0024Z" fill="white"/>
</svg>
